<svg xmlns="http://www.w3.org/2000/svg" width="25.765" height="20.612" viewBox="0 0 25.765 20.612">
  <path id="Icon_awesome-crown" data-name="Icon awesome-crown" d="M21.256,18.035H4.509a.646.646,0,0,0-.644.644v1.288a.646.646,0,0,0,.644.644H21.256a.646.646,0,0,0,.644-.644V18.679A.646.646,0,0,0,21.256,18.035ZM23.832,5.153A1.933,1.933,0,0,0,21.9,7.085a1.893,1.893,0,0,0,.177.8L19.162,9.63a1.287,1.287,0,0,1-1.779-.467L14.1,3.422a1.932,1.932,0,1,0-2.44,0L8.382,9.163A1.287,1.287,0,0,1,6.6,9.63L3.692,7.882A1.932,1.932,0,1,0,1.932,9.018a1.973,1.973,0,0,0,.31-.032l2.911,7.762H20.612l2.911-7.762a1.973,1.973,0,0,0,.31.032,1.932,1.932,0,0,0,0-3.865Z" fill="#00c2f4"/>
</svg>
