<svg xmlns="http://www.w3.org/2000/svg" width="25" height="25.3" viewBox="0 0 25 25.3">
  <path id="Icon_awesome-chevron-circle-down" data-name="Icon awesome-chevron-circle-down" d="M25.563,13.212a12.574,12.574,0,0,1-12.5,12.65,12.574,12.574,0,0,1-12.5-12.65A12.574,12.574,0,0,1,13.063.563,12.574,12.574,0,0,1,25.563,13.212Zm-11.643,5.81,6.83-6.912a1.229,1.229,0,0,0,0-1.729l-.857-.867a1.2,1.2,0,0,0-1.709,0L13.063,14.7,7.942,9.514a1.2,1.2,0,0,0-1.709,0l-.857.867a1.229,1.229,0,0,0,0,1.729l6.83,6.912A1.2,1.2,0,0,0,13.919,19.022Z" transform="translate(-0.563 -0.563)" fill="#f40053"/>
</svg>
