<svg xmlns="http://www.w3.org/2000/svg" width="36.646" height="36.646" viewBox="0 0 36.646 36.646">
  <g id="Group_472" data-name="Group 472" transform="translate(-1480 -37.5)">
    <path id="Icon_feather-message-circle" data-name="Icon feather-message-circle" d="M40.146,21.333a16.6,16.6,0,0,1-1.782,7.525,16.833,16.833,0,0,1-15.05,9.307,16.6,16.6,0,0,1-7.525-1.782L4.5,40.146,8.263,28.858A16.6,16.6,0,0,1,6.48,21.333a16.833,16.833,0,0,1,9.307-15.05A16.6,16.6,0,0,1,23.313,4.5h.99A16.793,16.793,0,0,1,40.146,20.342Z" transform="translate(1476 33.5)" fill="none" stroke="#000" stroke-linecap="round" stroke-linejoin="round" stroke-width="1"/>
    <path id="Icon_simple-slashdot" data-name="Icon simple-slashdot" d="M12.372,0,5.564,12.825H2.8L9.608,0Z" transform="translate(1490.735 49.41)"/>
  </g>
</svg>
