<svg xmlns="http://www.w3.org/2000/svg" width="19.846" height="21.5" viewBox="0 0 19.846 21.5">
  <g id="Group_166" data-name="Group 166" transform="translate(-237.27 -1354)">
    <ellipse id="Ellipse_31" data-name="Ellipse 31" cx="7.167" cy="7.565" rx="7.167" ry="7.565" transform="translate(240.24 1357.981)" fill="#fff"/>
    <path id="Icon_ionic-md-flower" data-name="Icon ionic-md-flower" d="M22.129,14.125a3.826,3.826,0,0,0-1.659-7.3,3.892,3.892,0,0,0-2.2.677l.031-.289a3.876,3.876,0,0,0-7.752,0l.031.289a3.848,3.848,0,1,0-3.861,6.621,3.826,3.826,0,0,0,1.659,7.3,3.892,3.892,0,0,0,2.2-.677l-.031.289a3.876,3.876,0,0,0,7.752,0l-.031-.289a3.848,3.848,0,1,0,3.861-6.621Zm-7.706,3.84a3.84,3.84,0,1,1,3.876-3.84A3.86,3.86,0,0,1,14.423,17.965Z" transform="translate(232.77 1350.625)" fill="#fff"/>
  </g>
</svg>
