<svg xmlns="http://www.w3.org/2000/svg" width="24" height="25.3" viewBox="0 0 24 25.3">
  <path id="Icon_awesome-share-alt" data-name="Icon awesome-share-alt" d="M18.857,15.812a5.4,5.4,0,0,0-3.2,1.033l-5.49-3.165a4.41,4.41,0,0,0,0-2.06l5.49-3.165a5.4,5.4,0,0,0,3.2,1.033A4.955,4.955,0,0,0,24,4.744,4.955,4.955,0,0,0,18.857,0a4.955,4.955,0,0,0-5.143,4.744,4.405,4.405,0,0,0,.122,1.03L8.346,8.939a5.4,5.4,0,0,0-3.2-1.033A4.955,4.955,0,0,0,0,12.65a4.955,4.955,0,0,0,5.143,4.744,5.4,5.4,0,0,0,3.2-1.033l5.49,3.165a4.405,4.405,0,0,0-.122,1.03A4.955,4.955,0,0,0,18.857,25.3,4.955,4.955,0,0,0,24,20.556,4.955,4.955,0,0,0,18.857,15.812Z"/>
</svg>
