<svg xmlns="http://www.w3.org/2000/svg" width="32.932" height="33.436" viewBox="0 0 32.932 33.436">
  <path id="Icon_awesome-chevron-circle-down" data-name="Icon awesome-chevron-circle-down" d="M32.494,16.78A16.091,16.091,0,0,1,16.528,33,16.091,16.091,0,0,1,.562,16.78,16.091,16.091,0,0,1,16.528.562,16.091,16.091,0,0,1,32.494,16.78ZM17.623,24.229l8.723-8.861a1.58,1.58,0,0,0,0-2.217l-1.094-1.112a1.522,1.522,0,0,0-2.182,0l-6.541,6.644L9.987,12.039a1.522,1.522,0,0,0-2.182,0L6.711,13.151a1.58,1.58,0,0,0,0,2.217l8.723,8.861A1.53,1.53,0,0,0,17.623,24.229Z" transform="translate(-0.063 -0.063)" fill="none" stroke="#000" stroke-width="1"/>
</svg>
