<svg xmlns="http://www.w3.org/2000/svg" width="17.657" height="17.657" viewBox="0 0 17.657 17.657">
  <g id="Icon_feather-image" data-name="Icon feather-image" transform="translate(1.5 1.5)">
    <g id="Path_990" data-name="Path 990" transform="translate(-4.5 -4.5)" fill="#fff" stroke-linecap="round" stroke-linejoin="round">
      <path d="M 17.52827644348145 19.90681648254395 L 6.128537178039551 19.90681648254395 C 4.817007064819336 19.90681648254395 3.74999737739563 18.83980751037598 3.74999737739563 17.52827644348145 L 3.74999737739563 6.128537178039551 C 3.74999737739563 4.817007064819336 4.817007064819336 3.74999737739563 6.128537178039551 3.74999737739563 L 17.52827644348145 3.74999737739563 C 18.83980751037598 3.74999737739563 19.90681648254395 4.817007064819336 19.90681648254395 6.128537178039551 L 19.90681648254395 17.52827644348145 C 19.90681648254395 18.83980751037598 18.83980751037598 19.90681648254395 17.52827644348145 19.90681648254395 Z" stroke="none"/>
      <path d="M 6.12852668762207 4.499998092651367 L 6.128538131713867 4.499998092651367 L 6.12852668762207 4.499998092651367 M 6.12852668762207 4.499998092651367 C 5.229116439819336 4.499998092651367 4.499998092651367 5.229116439819336 4.499998092651367 6.12852668762207 L 4.499998092651367 17.52827835083008 C 4.499998092651367 18.42769622802734 5.229116439819336 19.15681838989258 6.12852668762207 19.15681838989258 L 17.52827835083008 19.15681838989258 C 18.42769622802734 19.15681838989258 19.15681838989258 18.42769622802734 19.15681838989258 17.52827835083008 L 19.15681838989258 6.12852668762207 C 19.15681838989258 5.229116439819336 18.42769622802734 4.499998092651367 17.52827835083008 4.499998092651367 L 6.128538131713867 4.499998092651367 M 6.12852668762207 2.999998092651367 L 17.52827835083008 2.999998092651367 C 19.25335693359375 2.999998092651367 20.65681648254395 4.403448104858398 20.65681648254395 6.12852668762207 L 20.65681648254395 17.52827835083008 C 20.65681648254395 19.25335693359375 19.25335693359375 20.65681648254395 17.52827835083008 20.65681648254395 L 6.12852668762207 20.65681648254395 C 4.403448104858398 20.65681648254395 2.999998092651367 19.25335693359375 2.999998092651367 17.52827835083008 L 2.999998092651367 6.12852668762207 C 2.999998092651367 4.403448104858398 4.403457641601563 2.999998092651367 6.128538131713867 2.999998092651367 L 6.12852668762207 2.999998092651367 Z" stroke="none" fill="#f40053"/>
    </g>
    <g id="Path_991" data-name="Path 991" transform="translate(-7.243 -7.243)" fill="#fff" stroke-linecap="round" stroke-linejoin="round">
      <path d="M 11.72140216827393 13.69280242919922 C 10.63437175750732 13.69280242919922 9.750001907348633 12.80843257904053 9.750001907348633 11.72140216827393 C 9.750001907348633 10.63437175750732 10.63437175750732 9.750001907348633 11.72140216827393 9.750001907348633 C 12.80843257904053 9.750001907348633 13.69280242919922 10.63437175750732 13.69280242919922 11.72140216827393 C 13.69280242919922 12.80843257904053 12.80843257904053 13.69280242919922 11.72140216827393 13.69280242919922 Z" stroke="none"/>
      <path d="M 11.72140216827393 10.50000190734863 C 11.04684257507324 10.50000190734863 10.50000190734863 11.04684257507324 10.50000190734863 11.72140216827393 C 10.50000190734863 12.39596176147461 11.04684257507324 12.94280242919922 11.72140216827393 12.94280242919922 C 12.39596176147461 12.94280242919922 12.94280242919922 12.39596176147461 12.94280242919922 11.72140216827393 C 12.94280242919922 11.04684257507324 12.39596176147461 10.50000190734863 11.72140216827393 10.50000190734863 M 11.72140216827393 9.000001907348633 C 13.22199249267578 9.000001907348633 14.44280242919922 10.22081184387207 14.44280242919922 11.72140216827393 C 14.44280242919922 13.22199249267578 13.22199249267578 14.44280242919922 11.72140216827393 14.44280242919922 C 10.22081184387207 14.44280242919922 9.000001907348633 13.22199249267578 9.000001907348633 11.72140216827393 C 9.000001907348633 10.22081184387207 10.22081184387207 9.000001907348633 11.72140216827393 9.000001907348633 Z" stroke="none" fill="#f40053"/>
    </g>
    <path id="Path_992" data-name="Path 992" d="M20.528,19.071,16.457,15,7.5,23.957" transform="translate(-5.871 -9.3)" fill="#fff" stroke="#f40053" stroke-linecap="round" stroke-linejoin="round" stroke-width="1.5"/>
  </g>
</svg>
