<svg xmlns="http://www.w3.org/2000/svg" width="21.98" height="22.406" viewBox="0 0 21.98 22.406">
  <path id="Icon_ionic-logo-google" data-name="Icon ionic-logo-google" d="M25.507,12.858l-.113-.479H14.97v4.412H21.2a6.234,6.234,0,0,1-6.1,4.687,7.293,7.293,0,0,1-4.908-1.956A7.007,7.007,0,0,1,8.1,14.577a7.227,7.227,0,0,1,2.053-4.94A6.982,6.982,0,0,1,15.029,7.73a6.359,6.359,0,0,1,4.148,1.616l3.135-3.119a11.094,11.094,0,0,0-7.386-2.845h0A11.418,11.418,0,0,0,6.846,6.668a11.372,11.372,0,0,0-3.189,7.914,11.258,11.258,0,0,0,3.065,7.785,11.694,11.694,0,0,0,8.431,3.421A10.4,10.4,0,0,0,22.727,22.6a11.184,11.184,0,0,0,2.909-7.747A12.9,12.9,0,0,0,25.507,12.858Z" transform="translate(-3.656 -3.382)" fill="#fff"/>
</svg>
