<svg xmlns="http://www.w3.org/2000/svg" width="27.691" height="26.458" viewBox="0 0 27.691 26.458">
  <g id="Icon_feather-instagram" data-name="Icon feather-instagram" transform="translate(1 1)">
    <path id="Path_1001" data-name="Path 1001" d="M9.423,3H22.268a6.274,6.274,0,0,1,6.423,6.114V21.343a6.274,6.274,0,0,1-6.423,6.114H9.423A6.274,6.274,0,0,1,3,21.343V9.114A6.274,6.274,0,0,1,9.423,3Z" transform="translate(-3 -3)" fill="#fff" stroke="#000" stroke-linecap="round" stroke-linejoin="round" stroke-width="2"/>
    <path id="Path_1002" data-name="Path 1002" d="M22.286,16.109A4.836,4.836,0,0,1,19.513,21.2a5.333,5.333,0,0,1-5.943-.91,4.718,4.718,0,0,1-.956-5.658,5.209,5.209,0,0,1,5.343-2.639,5.02,5.02,0,0,1,4.329,4.121Z" transform="translate(-4.302 -4.651)" fill="#fff" stroke="#000" stroke-linecap="round" stroke-linejoin="round" stroke-width="2"/>
    <path id="Path_1003" data-name="Path 1003" d="M26.25,9.75h0" transform="translate(-6.339 -4.247)" fill="#fff" stroke="#000" stroke-linecap="round" stroke-linejoin="round" stroke-width="2"/>
  </g>
</svg>
