<svg xmlns="http://www.w3.org/2000/svg" width="19.731" height="19.731" viewBox="0 0 19.731 19.731">
  <g id="Group_536" data-name="Group 536" transform="translate(0)">
    <g id="Group_472" data-name="Group 472" transform="translate(0 0)">
      <path id="Icon_feather-message-circle" data-name="Icon feather-message-circle" d="M24.231,13.817a9.186,9.186,0,0,1-.987,4.165,9.317,9.317,0,0,1-8.331,5.152,9.186,9.186,0,0,1-4.165-.987L4.5,24.231l2.083-6.248A9.186,9.186,0,0,1,5.6,13.817c0-3.528,3.642-1.526,6.8-3.1,1.291-.652,1.072-6.217,2.519-6.214h.548a9.3,9.3,0,0,1,8.769,8.769Z" transform="translate(-4.5 -4.5)"/>
      <path id="Path_1013" data-name="Path 1013" d="M2.878,0A2.877,2.877,0,1,1,0,2.877,2.878,2.878,0,0,1,2.878,0Z" transform="translate(1.724 0.133)"/>
    </g>
  </g>
</svg>
