<svg xmlns="http://www.w3.org/2000/svg" width="19.926" height="21.886" viewBox="0 0 19.926 21.886">
  <g id="Group_535" data-name="Group 535" transform="translate(0 0)">
    <g id="Icon_ionic-ios-notifications" data-name="Icon ionic-ios-notifications" transform="translate(0 0)">
      <path id="Path_998" data-name="Path 998" d="M17.606,31.145a2.7,2.7,0,0,0,3-2.809h-6A2.7,2.7,0,0,0,17.606,31.145Z" transform="translate(-7.64 -9.259)"/>
      <path id="Path_999" data-name="Path 999" d="M26.434,19.632c-.959-1.076-2.847-1.706-2.847-6.523,0-4.944-2.566-6.931-4.958-7.408-.224-.048-.386-.111-.386-.313V5.234a1.43,1.43,0,0,0-1.52-1.3,1.427,1.427,0,0,0-1.52,1.3v.154c0,.2-.162.265-.386.313-2.4.482-4.958,2.464-4.958,7.408,0,4.817-1.887,5.442-2.847,6.523-.617.694-.031,1.685.99,1.685H25.45C26.465,21.317,27.051,20.321,26.434,19.632Z" transform="translate(-6.761 -3.93)"/>
    </g>
  </g>
</svg>
