<svg xmlns="http://www.w3.org/2000/svg" width="26.3" height="29" viewBox="0 0 26.3 29">
  <g id="Icon_feather-share-2" data-name="Icon feather-share-2" transform="translate(-3.5 -2)">
    <path id="Path_1060" data-name="Path 1060" d="M30.6,7.05A4.05,4.05,0,1,1,26.55,3,4.05,4.05,0,0,1,30.6,7.05Z" transform="translate(-1.8)" fill="none" stroke="#757575" stroke-linecap="round" stroke-linejoin="round" stroke-width="2"/>
    <path id="Path_1061" data-name="Path 1061" d="M12.6,17.55A4.05,4.05,0,1,1,8.55,13.5,4.05,4.05,0,0,1,12.6,17.55Z" transform="translate(0 -1.05)" fill="none" stroke="#757575" stroke-linecap="round" stroke-linejoin="round" stroke-width="2"/>
    <path id="Path_1062" data-name="Path 1062" d="M30.6,28.05A4.05,4.05,0,1,1,26.55,24,4.05,4.05,0,0,1,30.6,28.05Z" transform="translate(-1.8 -2.1)" fill="none" stroke="#757575" stroke-linecap="round" stroke-linejoin="round" stroke-width="2"/>
    <path id="Path_1063" data-name="Path 1063" d="M12.885,20.265l9.22,5.373" transform="translate(-0.838 -1.727)" fill="none" stroke="#757575" stroke-linecap="round" stroke-linejoin="round" stroke-width="2"/>
    <path id="Path_1064" data-name="Path 1064" d="M22.092,9.765l-9.207,5.373" transform="translate(-0.838 -0.677)" fill="none" stroke="#757575" stroke-linecap="round" stroke-linejoin="round" stroke-width="2"/>
  </g>
</svg>
