<svg xmlns="http://www.w3.org/2000/svg" width="33.312" height="36.298" viewBox="0 0 33.312 36.298">
  <g id="Icon_ionic-ios-notifications" data-name="Icon ionic-ios-notifications" transform="translate(-5.696 -1.93)">
    <path id="Path_998" data-name="Path 998" d="M19.309,32.737c3.036,0,4.7-1.827,4.7-4.4H14.6C14.6,30.91,16.263,32.737,19.309,32.737Z" transform="translate(3.048 5.491)" fill="#fff"/>
    <path id="Path_999" data-name="Path 999" d="M37.592,28.537c-1.5-1.686-4.461-2.674-4.461-10.223,0-7.748-4.022-10.862-7.77-11.61-.351-.075-.605-.174-.605-.49V5.973a2.242,2.242,0,0,0-2.382-2.043,2.236,2.236,0,0,0-2.382,2.043v.241c0,.307-.254.415-.605.49-3.758.756-7.77,3.862-7.77,11.61,0,7.549-2.958,8.529-4.461,10.223-.966,1.088-.049,2.641,1.552,2.641H36.05C37.641,31.178,38.559,29.617,37.592,28.537Z" transform="translate(-0.022 -1)" fill="none" stroke="#fff" stroke-width="2"/>
  </g>
</svg>
