<svg xmlns="http://www.w3.org/2000/svg" width="27" height="28" viewBox="0 0 27 28">
  <g id="Group_1191" data-name="Group 1191" transform="translate(-1526 -816.85)">
    <g id="Icon_awesome-chevron-circle-down" data-name="Icon awesome-chevron-circle-down" transform="translate(1527.438 818.287)" fill="none">
      <path d="M23.562,12.562a11.756,11.756,0,0,1-11.5,12,11.756,11.756,0,0,1-11.5-12,11.756,11.756,0,0,1,11.5-12A11.756,11.756,0,0,1,23.562,12.562ZM12.851,18.074l6.283-6.556a1.192,1.192,0,0,0,0-1.64l-.788-.823a1.076,1.076,0,0,0-1.572,0l-4.711,4.916L7.351,9.054a1.076,1.076,0,0,0-1.572,0l-.788.823a1.192,1.192,0,0,0,0,1.64l6.283,6.556A1.081,1.081,0,0,0,12.851,18.074Z" stroke="none"/>
      <path d="M 12.06249904632568 0.5625 C 5.709678649902344 0.5625 0.5624980926513672 5.933469772338867 0.5624980926513672 12.5625 C 0.5624980926513672 19.19153022766113 5.709678649902344 24.5625 12.06249904632568 24.5625 C 18.41531944274902 24.5625 23.5625 19.19153022766113 23.5625 12.5625 C 23.5625 5.933469772338867 18.41531944274902 0.5625 12.06249904632568 0.5625 M 12.06249904632568 13.97056007385254 L 16.77378845214844 9.054439544677734 C 16.98941421508789 8.827020645141602 17.2734375 8.713310241699219 17.55803680419922 8.713310241699219 C 17.8426399230957 8.713310241699219 18.1278190612793 8.827020645141602 18.34575843811035 9.054439544677734 L 19.13406944274902 9.877019882202148 C 19.56995964050293 10.32701969146729 19.56995964050293 11.0625 19.13406944274902 11.5173397064209 L 12.85080909729004 18.07378959655762 C 12.63286399841309 18.30121040344238 12.34768199920654 18.41492080688477 12.0625 18.41492080688477 C 11.77731895446777 18.41492080688477 11.49213886260986 18.30121040344238 11.27419948577881 18.07378959655762 L 4.990928649902344 11.5173397064209 C 4.555038452148438 11.06733989715576 4.555038452148438 10.33185005187988 4.990928649902344 9.877019882202148 L 5.779228210449219 9.054439544677734 C 5.994853973388672 8.827020645141602 6.278877258300781 8.713310241699219 6.563478469848633 8.713310241699219 C 6.848081588745117 8.713310241699219 7.133264541625977 8.827020645141602 7.35120964050293 9.054439544677734 L 12.06249904632568 13.97056007385254 M 12.06249904632568 -1.4375 C 15.68536949157715 -1.4375 19.08629989624023 0.02934074401855469 21.63877868652344 2.692800521850586 C 24.16902923583984 5.333059310913086 25.5625 8.838190078735352 25.5625 12.5625 C 25.5625 16.28680992126465 24.16902923583984 19.79194068908691 21.63877868652344 22.43219947814941 C 19.08629989624023 25.09565925598145 15.68536949157715 26.5625 12.06249904632568 26.5625 C 8.439628601074219 26.5625 5.038698196411133 25.09565925598145 2.48621940612793 22.43219947814941 C -0.04403114318847656 19.79194068908691 -1.437501907348633 16.28680992126465 -1.437501907348633 12.5625 C -1.437501907348633 8.838190078735352 -0.04403114318847656 5.333059310913086 2.48621940612793 2.692800521850586 C 5.038698196411133 0.02934074401855469 8.439628601074219 -1.4375 12.06249904632568 -1.4375 Z" stroke="none" fill="#757575"/>
    </g>
  </g>
</svg>
