<svg xmlns="http://www.w3.org/2000/svg" width="26.516" height="25.562" viewBox="0 0 26.516 25.562">
  <path id="Icon_awesome-comment" data-name="Icon awesome-comment" d="M12.252,2.25C5.485,2.25,0,7.146,0,13.189a10.184,10.184,0,0,0,2.728,6.874A13.684,13.684,0,0,1,.105,25.1a.45.45,0,0,0-.072.458.376.376,0,0,0,.349.252,10.4,10.4,0,0,0,6.729-2.7,13.436,13.436,0,0,0,5.14,1.02c6.767,0,12.252-4.9,12.252-10.939S19.019,2.25,12.252,2.25Z" transform="translate(1.012 -1.25)" fill="none" stroke="#757575" stroke-width="2"/>
</svg>
