<svg xmlns="http://www.w3.org/2000/svg" width="33.432" height="33.936" viewBox="0 0 33.432 33.936">
  <g id="Group_1000" data-name="Group 1000" transform="translate(-1481.904 -40.807)">
    <path id="Icon_awesome-chevron-circle-down" data-name="Icon awesome-chevron-circle-down" d="M32.494,16.78A16.091,16.091,0,0,1,16.528,33,16.091,16.091,0,0,1,.562,16.78,16.091,16.091,0,0,1,16.528.562,16.091,16.091,0,0,1,32.494,16.78Z" transform="translate(1482.092 40.994)" fill="none" stroke="#000" stroke-width="1.5"/>
    <path id="Icon_ionic-ios-arrow-up" data-name="Icon ionic-ios-arrow-up" d="M14.807,14.216l6.516,6.511a1.231,1.231,0,0,0,1.739-1.742L15.68,11.609a1.231,1.231,0,0,0-1.7-.036L6.547,18.98a1.231,1.231,0,0,0,1.739,1.742Z" transform="translate(1513.426 75.666) rotate(180)" stroke="#000" stroke-width="1"/>
  </g>
</svg>
